<svg preserveAspectRatio="xMidYMid meet" width="100%" height="100%" overflow="visible" style="display: block;" viewBox="0 0 10.1497 10.9582" fill="none" xmlns="http://www.w3.org/2000/svg">
<path id="Vector" d="M6.88876 3.25437L3.62837 6.51534C3.57331 6.56852 3.5294 6.63212 3.49919 6.70245C3.46898 6.77278 3.45308 6.84842 3.45241 6.92496C3.45174 7.0015 3.46633 7.07741 3.49531 7.14825C3.5243 7.2191 3.5671 7.28346 3.62123 7.33758C3.67535 7.39171 3.73971 7.43451 3.81055 7.46349C3.8814 7.49248 3.95731 7.50706 4.03385 7.5064C4.11039 7.50573 4.18603 7.48983 4.25636 7.45962C4.32668 7.42941 4.39029 7.38549 4.44347 7.33044L7.70444 4.07005C8.02878 3.7457 8.21099 3.3058 8.21099 2.84711C8.21099 2.38842 8.02878 1.94852 7.70444 1.62418C7.38009 1.29983 6.94019 1.11762 6.4815 1.11762C6.02281 1.11762 5.58291 1.29983 5.25857 1.62418L1.9976 4.88514C1.72441 5.15154 1.50683 5.46952 1.35749 5.82066C1.20814 6.1718 1.13001 6.54909 1.12762 6.93066C1.12523 7.31223 1.19863 7.69047 1.34356 8.04345C1.48849 8.39643 1.70207 8.71712 1.9719 8.98691C2.24173 9.25671 2.56245 9.47024 2.91545 9.61512C3.26845 9.76 3.64671 9.83334 4.02827 9.8309C4.40984 9.82846 4.78712 9.75027 5.13824 9.60088C5.48935 9.45149 5.80731 9.23386 6.07366 8.96063L9.33463 5.70024L10.1497 6.51534L6.88876 9.77631C6.51405 10.151 6.06919 10.4483 5.5796 10.6511C5.09001 10.8539 4.56527 10.9582 4.03534 10.9582C3.50541 10.9582 2.98067 10.8539 2.49108 10.6511C2.00149 10.4483 1.55664 10.151 1.18192 9.77631C0.807208 9.40159 0.509967 8.95674 0.307172 8.46715C0.104377 7.97756 -3.94828e-09 7.45282 0 6.92289C3.94828e-09 6.39296 0.104377 5.86822 0.307172 5.37863C0.509967 4.88904 0.807208 4.44419 1.18192 4.06947L4.44347 0.809079C4.98707 0.284056 5.71513 -0.006458 6.47084 0.000108956C7.22656 0.00667591 7.94946 0.309798 8.48385 0.844189C9.01824 1.37858 9.32136 2.10148 9.32793 2.8572C9.33449 3.61291 9.04398 4.34097 8.51896 4.88457L5.25857 8.14669C5.09793 8.30729 4.90724 8.43467 4.69737 8.52157C4.4875 8.60847 4.26257 8.65319 4.03543 8.65316C3.80828 8.65313 3.58336 8.60837 3.37352 8.52142C3.16367 8.43447 2.97301 8.30704 2.81241 8.1464C2.65181 7.98576 2.52442 7.79507 2.43752 7.5852C2.35062 7.37534 2.30591 7.15041 2.30594 6.92326C2.30596 6.69612 2.35073 6.4712 2.43768 6.26135C2.52463 6.05151 2.65206 5.86084 2.8127 5.70024L6.07366 2.43927L6.88876 3.25437Z" fill="var(--fill-0, #171717)"/>
</svg>
