<svg preserveAspectRatio="xMidYMid meet" width="100%" height="100%" overflow="visible" style="display: block;" viewBox="0 0 13.8348 13.8348" fill="none" xmlns="http://www.w3.org/2000/svg">
<path id="Vector" d="M7.60912 12.4513V13.8348H6.22564V12.4513H0.691738C0.508278 12.4513 0.332331 12.3784 0.202605 12.2487C0.0728793 12.119 0 11.943 0 11.7595V0.69174C0 0.50828 0.0728793 0.332333 0.202605 0.202607C0.332331 0.0728812 0.508278 1.94284e-06 0.691738 1.94284e-06H4.84216C5.23479 -0.000463882 5.62299 0.0828418 5.98085 0.244356C6.33871 0.405871 6.65799 0.641877 6.91738 0.936615C7.17676 0.641877 7.49605 0.405871 7.85391 0.244356C8.21177 0.0828418 8.59997 -0.000463882 8.99259 1.94284e-06H13.143C13.3265 1.94284e-06 13.5024 0.0728812 13.6322 0.202607C13.7619 0.332333 13.8348 0.50828 13.8348 0.69174V11.7595C13.8348 11.943 13.7619 12.119 13.6322 12.2487C13.5024 12.3784 13.3265 12.4513 13.143 12.4513H7.60912ZM12.4513 11.0678V1.38348H8.99259C8.62567 1.38348 8.27378 1.52924 8.01433 1.78869C7.75488 2.04814 7.60912 2.40003 7.60912 2.76695V11.0678H12.4513ZM6.22564 11.0678V2.76695C6.22564 2.40003 6.07988 2.04814 5.82043 1.78869C5.56098 1.52924 5.20909 1.38348 4.84216 1.38348H1.38348V11.0678H6.22564Z" fill="var(--fill-0, #5C5C5C)"/>
</svg>
