<svg preserveAspectRatio="xMidYMid meet" width="100%" height="100%" overflow="visible" style="display: block;" viewBox="0 0 10.3761 11.529" fill="none" xmlns="http://www.w3.org/2000/svg">
<path id="Vector" d="M6.91738 1.1529H1.1529V10.3761H9.22317V3.45869H6.91738V1.1529ZM0 0.571837C0 0.255943 0.257672 0 0.575872 0H7.49383L10.3761 2.88224V10.9485C10.3766 11.0242 10.3622 11.0992 10.3337 11.1694C10.3053 11.2395 10.2632 11.3034 10.2101 11.3573C10.1569 11.4112 10.0937 11.4541 10.0239 11.4835C9.95421 11.513 9.87936 11.5284 9.80365 11.529H0.572413C0.421025 11.5279 0.276129 11.4673 0.169025 11.3603C0.0619209 11.2533 0.00120746 11.1085 0 10.9571V0.571837ZM5.76448 5.76448V8.07027H4.61159V5.76448H2.88224L5.18803 3.45869L7.49383 5.76448H5.76448Z" fill="var(--fill-0, #171717)"/>
</svg>
