<svg preserveAspectRatio="none" width="100%" height="100%" overflow="visible" style="display: block;" viewBox="0 0 16.1876 6.38253" fill="none" xmlns="http://www.w3.org/2000/svg">
<g id="PDF">
<path d="M0 6.38253V0H2.51811C3.0022 0 3.41461 0.0924553 3.75535 0.277366C4.09608 0.460199 4.35578 0.71471 4.53446 1.0409C4.71522 1.36501 4.8056 1.73899 4.8056 2.16283C4.8056 2.58667 4.71418 2.96065 4.53135 3.28476C4.34851 3.60887 4.08361 3.86131 3.73665 4.04206C3.39176 4.22282 2.97415 4.31319 2.48383 4.31319H0.878844V3.23178H2.26567C2.52538 3.23178 2.73938 3.18711 2.90767 3.09777C3.07803 3.00635 3.20477 2.88066 3.28787 2.72068C3.37306 2.55862 3.41565 2.37267 3.41565 2.16283C3.41565 1.95091 3.37306 1.766 3.28787 1.6081C3.20477 1.44812 3.07803 1.3245 2.90767 1.23724C2.7373 1.1479 2.52122 1.10323 2.25944 1.10323H1.34943V6.38253H0Z" fill="var(--fill-0, white)"/>
<path d="M7.892 6.38253H5.62945V0H7.9107C8.55269 0 9.10535 0.127775 9.56866 0.383326C10.032 0.636798 10.3883 1.00143 10.6376 1.47721C10.889 1.95299 11.0147 2.52226 11.0147 3.18503C11.0147 3.84988 10.889 4.42123 10.6376 4.89909C10.3883 5.37695 10.0299 5.74365 9.56243 5.9992C9.09704 6.25475 8.54023 6.38253 7.892 6.38253ZM6.97888 5.22632H7.83591C8.23481 5.22632 8.57035 5.15568 8.84253 5.0144C9.11678 4.87104 9.32246 4.64977 9.45959 4.35059C9.59879 4.04933 9.66839 3.66081 9.66839 3.18503C9.66839 2.71341 9.59879 2.328 9.45959 2.02882C9.32246 1.72964 9.11781 1.50941 8.84564 1.36813C8.57347 1.22685 8.23793 1.15621 7.83902 1.15621H6.97888V5.22632Z" fill="var(--fill-0, white)"/>
<path d="M11.9617 6.38253V0H16.1876V1.11258H13.3111V2.63342H15.9071V3.746H13.3111V6.38253H11.9617Z" fill="var(--fill-0, white)"/>
</g>
</svg>
