<svg preserveAspectRatio="none" width="100%" height="100%" overflow="visible" style="display: block;" viewBox="0 0 14.6453 10.2517" fill="none" xmlns="http://www.w3.org/2000/svg">
<path id="Vector" d="M5.85814 7.32267L9.6586 5.12587L5.85814 2.92907V7.32267ZM14.3231 1.58902C14.4183 1.93318 14.4842 2.39451 14.5282 2.98033C14.5794 3.56614 14.6014 4.0714 14.6014 4.51076L14.6453 5.12587C14.6453 6.72953 14.5282 7.90848 14.3231 8.66272C14.1401 9.32176 13.7154 9.74647 13.0563 9.92954C12.7122 10.0247 12.0824 10.0906 11.1158 10.1346C10.1639 10.1858 9.29247 10.2078 8.48697 10.2078L7.32267 10.2517C4.25447 10.2517 2.34325 10.1346 1.58902 9.92954C0.929979 9.74647 0.505264 9.32176 0.322198 8.66272C0.227003 8.31855 0.161099 7.85722 0.117163 7.27141C0.0659041 6.6856 0.043936 6.18033 0.043936 5.74097L0 5.12587C0 3.5222 0.117163 2.34325 0.322198 1.58902C0.505264 0.929979 0.929979 0.505264 1.58902 0.322197C1.93319 0.227003 2.56293 0.161099 3.52953 0.117163C4.48147 0.0659039 5.35287 0.043936 6.15837 0.043936L7.32267 0C10.3909 0 12.3021 0.117163 13.0563 0.322197C13.7154 0.505264 14.1401 0.929979 14.3231 1.58902Z" fill="var(--fill-0, white)"/>
</svg>
