<svg preserveAspectRatio="none" width="100%" height="100%" overflow="visible" style="display: block;" viewBox="0 0 16.1983 6.3183" fill="none" xmlns="http://www.w3.org/2000/svg">
<g id="PPT">
<path d="M0 6.31829V0H2.49276C2.97198 0 3.38025 0.0915248 3.71755 0.274574C4.05486 0.455567 4.31195 0.707517 4.48883 1.03042C4.66776 1.35128 4.75723 1.72149 4.75723 2.14106C4.75723 2.56064 4.66674 2.93085 4.48574 3.2517C4.30475 3.57255 4.04252 3.82244 3.69904 4.00138C3.35762 4.18032 2.94422 4.26979 2.45883 4.26979H0.87V3.19925H2.24287C2.49996 3.19925 2.71181 3.15503 2.8784 3.06659C3.04706 2.9761 3.17252 2.85167 3.25479 2.6933C3.33911 2.53287 3.38128 2.34879 3.38128 2.14106C3.38128 1.93128 3.33911 1.74823 3.25479 1.59191C3.17252 1.43355 3.04706 1.31117 2.8784 1.22479C2.70975 1.13635 2.49585 1.09213 2.2367 1.09213H1.33585V6.31829H0Z" fill="var(--fill-0, white)"/>
<path d="M5.62492 6.31829V0H8.11768C8.5969 0 9.00516 0.0915248 9.34247 0.274574C9.67977 0.455567 9.93687 0.707517 10.1137 1.03042C10.2927 1.35128 10.3821 1.72149 10.3821 2.14106C10.3821 2.56064 10.2917 2.93085 10.1107 3.2517C9.92967 3.57255 9.66743 3.82244 9.32396 4.00138C8.98254 4.18032 8.56914 4.26979 8.08375 4.26979H6.49492V3.19925H7.86779C8.12488 3.19925 8.33672 3.15503 8.50332 3.06659C8.67197 2.9761 8.79743 2.85167 8.8797 2.6933C8.96403 2.53287 9.00619 2.34879 9.00619 2.14106C9.00619 1.93128 8.96403 1.74823 8.8797 1.59191C8.79743 1.43355 8.67197 1.31117 8.50332 1.22479C8.33467 1.13635 8.12077 1.09213 7.86162 1.09213H6.96077V6.31829H5.62492Z" fill="var(--fill-0, white)"/>
<path d="M11.0092 1.10138V0H16.1983V1.10138H14.264V6.31829H12.9436V1.10138H11.0092Z" fill="var(--fill-0, white)"/>
</g>
</svg>
