<svg preserveAspectRatio="none" width="100%" height="100%" overflow="visible" style="display: block;" viewBox="0 0 16.233 6.49415" fill="none" xmlns="http://www.w3.org/2000/svg">
<g id="XLS">
<path d="M1.55181 0.086383L2.82596 2.23979H2.87532L4.15564 0.086383H5.66425L3.73606 3.24553L5.70744 6.40468H4.17106L2.87532 4.24819H2.82596L1.53021 6.40468H0L1.97755 3.24553L0.0370213 0.086383H1.55181Z" fill="var(--fill-0, white)"/>
<path d="M6.50957 6.40468V0.086383H7.84542V5.3033H10.5541V6.40468H6.50957Z" fill="var(--fill-0, white)"/>
<path d="M14.8663 1.90351C14.8417 1.65464 14.7357 1.46131 14.5486 1.32351C14.3614 1.18571 14.1074 1.11681 13.7866 1.11681C13.5685 1.11681 13.3845 1.14766 13.2343 1.20936C13.0842 1.26901 12.969 1.3523 12.8888 1.45925C12.8106 1.5662 12.7716 1.68755 12.7716 1.8233C12.7674 1.93642 12.7911 2.03514 12.8425 2.11947C12.896 2.20379 12.969 2.27681 13.0616 2.33851C13.1541 2.39815 13.2611 2.4506 13.3824 2.49585C13.5038 2.53904 13.6333 2.57606 13.7711 2.60691L14.3388 2.74266C14.6144 2.80436 14.8674 2.88663 15.0977 2.98947C15.3281 3.0923 15.5276 3.21879 15.6962 3.36893C15.8649 3.51908 15.9955 3.69596 16.0881 3.89957C16.1827 4.10319 16.231 4.33663 16.233 4.59989C16.231 4.98656 16.1323 5.32181 15.9369 5.60564C15.7435 5.88741 15.4638 6.10645 15.0977 6.26276C14.7337 6.41702 14.2946 6.49415 13.7804 6.49415C13.2703 6.49415 12.8261 6.41599 12.4476 6.25968C12.0712 6.10337 11.7771 5.87198 11.5653 5.56553C11.3555 5.25702 11.2455 4.87549 11.2352 4.42096H12.5278C12.5422 4.6328 12.6029 4.80968 12.7099 4.95159C12.8189 5.09145 12.9639 5.19737 13.1449 5.26936C13.3279 5.33929 13.5346 5.37425 13.765 5.37425C13.9912 5.37425 14.1876 5.34134 14.3542 5.27553C14.5229 5.20971 14.6535 5.11819 14.746 5.00096C14.8386 4.88372 14.8849 4.749 14.8849 4.59681C14.8849 4.45489 14.8427 4.3356 14.7584 4.23893C14.6761 4.14227 14.5548 4.06 14.3943 3.99213C14.236 3.92425 14.0416 3.86255 13.8112 3.80702L13.1233 3.63425C12.5906 3.50468 12.17 3.30209 11.8615 3.02649C11.5529 2.75089 11.3997 2.37964 11.4018 1.91276C11.3997 1.53021 11.5015 1.19599 11.7072 0.910106C11.9149 0.62422 12.1998 0.401064 12.5618 0.240638C12.9238 0.0802127 13.3351 0 13.7958 0C14.2648 0 14.674 0.0802127 15.0237 0.240638C15.3754 0.401064 15.6489 0.62422 15.8443 0.910106C16.0397 1.19599 16.1405 1.52713 16.1467 1.90351H14.8663Z" fill="var(--fill-0, white)"/>
</g>
</svg>
