<svg preserveAspectRatio="none" width="100%" height="100%" overflow="visible" style="display: block;" viewBox="0 0 11.988 11.988" fill="none" xmlns="http://www.w3.org/2000/svg">
<path id="Vector" d="M5.99401 11.988C2.68352 11.988 0 9.30451 0 5.99401C0 2.68352 2.68352 0 5.99401 0C9.30451 0 11.988 2.68352 11.988 5.99401C11.988 9.30451 9.30451 11.988 5.99401 11.988ZM4.62138 10.5896C4.03002 9.33526 3.68744 7.97816 3.61259 6.59341H1.23597C1.3526 7.51583 1.73462 8.38452 2.33561 9.09394C2.9366 9.80336 3.73068 10.323 4.62138 10.5896V10.5896ZM4.81319 6.59341C4.9037 8.05535 5.32148 9.42858 5.99401 10.6406C6.68471 9.39654 7.08819 8.01368 7.17483 6.59341H4.81319V6.59341ZM10.7521 6.59341H8.37543C8.30058 7.97816 7.958 9.33526 7.36664 10.5896C8.25734 10.323 9.05143 9.80336 9.65242 9.09394C10.2534 8.38452 10.6354 7.51583 10.7521 6.59341V6.59341ZM1.23597 5.39461H3.61259C3.68744 4.00987 4.03002 2.65276 4.62138 1.3984C3.73068 1.66506 2.9366 2.18467 2.33561 2.89409C1.73462 3.6035 1.3526 4.47219 1.23597 5.39461V5.39461ZM4.81379 5.39461H7.17423C7.08777 3.97439 6.68451 2.59153 5.99401 1.34745C5.30331 2.59148 4.89984 3.97434 4.81319 5.39461H4.81379ZM7.36664 1.3984C7.958 2.65276 8.30058 4.00987 8.37543 5.39461H10.7521C10.6354 4.47219 10.2534 3.6035 9.65242 2.89409C9.05143 2.18467 8.25734 1.66506 7.36664 1.3984V1.3984Z" fill="var(--fill-0, white)"/>
</svg>
