<svg preserveAspectRatio="none" width="100%" height="100%" overflow="visible" style="display: block;" viewBox="0 0 18.2675 6.49106" fill="none" xmlns="http://www.w3.org/2000/svg">
<g id="DOC">
<path d="M2.18902 6.40468H0V0.086383H2.20711C2.82824 0.086383 3.36293 0.212872 3.81119 0.465851C4.25944 0.716773 4.60418 1.07773 4.84539 1.54872C5.08862 2.01972 5.21023 2.58326 5.21023 3.23936C5.21023 3.89752 5.08862 4.46312 4.84539 4.93617C4.60418 5.40922 4.25743 5.77223 3.80516 6.02521C3.35489 6.27819 2.81618 6.40468 2.18902 6.40468ZM1.30557 5.2601H2.13475C2.52069 5.2601 2.84532 5.19017 3.10865 5.05032C3.37399 4.9084 3.57299 4.68936 3.70566 4.39319C3.84033 4.09496 3.90767 3.71035 3.90767 3.23936C3.90767 2.77248 3.84033 2.39096 3.70566 2.09479C3.57299 1.79862 3.37499 1.5806 3.11167 1.44074C2.84834 1.30089 2.52371 1.23096 2.13776 1.23096H1.30557V5.2601Z" fill="var(--fill-0, white)"/>
<path d="M11.8519 3.24553C11.8519 3.93454 11.7243 4.52071 11.469 5.00404C11.2157 5.48737 10.87 5.85656 10.4318 6.11159C9.99557 6.36457 9.5051 6.49106 8.96036 6.49106C8.4116 6.49106 7.91912 6.36354 7.48292 6.10851C7.04673 5.85347 6.70199 5.48429 6.44872 5.00096C6.19544 4.51762 6.0688 3.93248 6.0688 3.24553C6.0688 2.55652 6.19544 1.97035 6.44872 1.48702C6.70199 1.00369 7.04673 0.635532 7.48292 0.382553C7.91912 0.127518 8.4116 0 8.96036 0C9.5051 0 9.99557 0.127518 10.4318 0.382553C10.87 0.635532 11.2157 1.00369 11.469 1.48702C11.7243 1.97035 11.8519 2.55652 11.8519 3.24553ZM10.5283 3.24553C10.5283 2.79922 10.4629 2.42284 10.3323 2.11638C10.2036 1.80993 10.0217 1.57752 9.78652 1.41915C9.55134 1.26078 9.27595 1.1816 8.96036 1.1816C8.64477 1.1816 8.36939 1.26078 8.1342 1.41915C7.89902 1.57752 7.7161 1.80993 7.58544 2.11638C7.45679 2.42284 7.39247 2.79922 7.39247 3.24553C7.39247 3.69184 7.45679 4.06823 7.58544 4.37468C7.7161 4.68113 7.89902 4.91354 8.1342 5.07191C8.36939 5.23028 8.64477 5.30947 8.96036 5.30947C9.27595 5.30947 9.55134 5.23028 9.78652 5.07191C10.0217 4.91354 10.2036 4.68113 10.3323 4.37468C10.4629 4.06823 10.5283 3.69184 10.5283 3.24553Z" fill="var(--fill-0, white)"/>
<path d="M18.2675 2.2984H16.9468C16.9227 2.12358 16.8734 1.9683 16.7991 1.83255C16.7247 1.69475 16.6292 1.57752 16.5126 1.48085C16.396 1.38418 16.2614 1.31014 16.1086 1.25872C15.9578 1.2073 15.794 1.1816 15.6171 1.1816C15.2975 1.1816 15.0191 1.26284 14.7819 1.42532C14.5447 1.58574 14.3608 1.82021 14.2301 2.12872C14.0995 2.43518 14.0342 2.80745 14.0342 3.24553C14.0342 3.69596 14.0995 4.0744 14.2301 4.38085C14.3628 4.6873 14.5477 4.91869 14.7849 5.075C15.0221 5.23131 15.2965 5.30947 15.6081 5.30947C15.783 5.30947 15.9448 5.28581 16.0935 5.23851C16.2443 5.1912 16.378 5.1223 16.4945 5.03181C16.6111 4.93925 16.7076 4.82716 16.784 4.69553C16.8624 4.5639 16.9167 4.41376 16.9468 4.2451L18.2675 4.25127C18.2333 4.54127 18.1479 4.82099 18.0112 5.09042C17.8765 5.3578 17.6946 5.59741 17.4654 5.80925C17.2383 6.01904 16.9669 6.18564 16.6513 6.30904C16.3378 6.43039 15.983 6.49106 15.587 6.49106C15.0362 6.49106 14.5437 6.36354 14.1095 6.10851C13.6774 5.85347 13.3356 5.48429 13.0844 5.00096C12.8351 4.51762 12.7105 3.93248 12.7105 3.24553C12.7105 2.55652 12.8371 1.97035 13.0904 1.48702C13.3437 1.00369 13.6874 0.635532 14.1216 0.382553C14.5558 0.127518 15.0442 0 15.587 0C15.9448 0 16.2764 0.0514184 16.582 0.154255C16.8895 0.257092 17.1619 0.407234 17.3991 0.60468C17.6363 0.80007 17.8293 1.03968 17.978 1.32351C18.1288 1.60734 18.2253 1.9323 18.2675 2.2984Z" fill="var(--fill-0, white)"/>
</g>
</svg>
