<svg preserveAspectRatio="xMidYMid meet" width="100%" height="100%" overflow="visible" style="display: block;" viewBox="0 0 11.4292 10.3761" fill="none" xmlns="http://www.w3.org/2000/svg">
<path id="Vector" d="M0.576708 3.45869H10.8525C10.9322 3.45865 11.0111 3.47517 11.0842 3.50719C11.1572 3.53921 11.2228 3.58604 11.2768 3.64471C11.3309 3.70339 11.3721 3.77264 11.398 3.84808C11.4239 3.92351 11.4338 4.0035 11.4272 4.08298L10.9464 9.84746C10.9344 9.99151 10.8688 10.1258 10.7624 10.2237C10.6561 10.3216 10.5168 10.376 10.3723 10.3761H1.05689C0.912343 10.376 0.773101 10.3216 0.666761 10.2237C0.560421 10.1258 0.494744 9.99151 0.482747 9.84746L0.00198906 4.08298C-0.00463058 4.0035 0.00531454 3.92351 0.0311954 3.84808C0.0570763 3.77264 0.0983298 3.70339 0.152347 3.64471C0.206364 3.58604 0.27197 3.53921 0.345014 3.50719C0.418059 3.47517 0.496953 3.45865 0.576708 3.45869V3.45869ZM1.58722 9.22317H9.84196L10.2259 4.61159H1.20331L1.58722 9.22317V9.22317ZM6.52969 1.1529H10.3262C10.4791 1.1529 10.6257 1.21363 10.7338 1.32173C10.8419 1.42984 10.9026 1.57646 10.9026 1.72934V2.30579H0.526557V0.576448C0.526557 0.423565 0.58729 0.276943 0.695395 0.168838C0.8035 0.0607327 0.950122 0 1.10301 0H5.37679L6.52969 1.1529Z" fill="var(--fill-0, white)"/>
</svg>
