<svg preserveAspectRatio="xMidYMid meet" width="100%" height="100%" overflow="visible" style="display: block;" viewBox="0 0 9.22318 12.1048" fill="none" xmlns="http://www.w3.org/2000/svg">
<path id="Vector" d="M3.44324 9.22259H5.78016C5.85626 8.5297 6.20962 7.95787 6.78318 7.33357C6.84832 7.26325 7.26279 6.83379 7.31179 6.77269C7.71892 6.26405 7.97412 5.65076 8.04798 5.00344C8.12184 4.35612 8.01137 3.70111 7.72928 3.11382C7.44719 2.52654 7.00496 2.03087 6.45352 1.68391C5.90207 1.33694 5.26384 1.15278 4.61233 1.15264C3.96081 1.1525 3.3225 1.33639 2.77091 1.68312C2.21932 2.02985 1.77688 2.52533 1.49454 3.11249C1.2122 3.69965 1.10144 4.35462 1.17503 5.00197C1.24862 5.64932 1.50355 6.26272 1.91047 6.77154C1.96004 6.83322 2.37566 7.26325 2.43965 7.333C3.01379 7.95787 3.36715 8.5297 3.44324 9.22259V9.22259ZM5.7646 10.3755H3.45881V10.9519H5.7646V10.3755ZM1.01121 7.49325C0.468304 6.81494 0.128059 5.99706 0.0296688 5.13383C-0.0687214 4.2706 0.0787453 3.39713 0.455081 2.61404C0.831418 1.83096 1.42131 1.17012 2.15682 0.707637C2.89232 0.245159 3.74351 -0.000139064 4.61233 5.91455e-08C5.48115 0.000139182 6.33226 0.24571 7.06761 0.708424C7.80297 1.17114 8.39265 1.83217 8.76873 2.61538C9.14482 3.39858 9.29201 4.2721 9.19334 5.1353C9.09467 5.9985 8.75417 6.81627 8.21105 7.4944C7.85365 7.93942 6.9175 8.64615 6.9175 9.51082V10.9519C6.9175 11.2577 6.79603 11.5509 6.57982 11.7672C6.36361 11.9834 6.07037 12.1048 5.7646 12.1048H3.45881C3.15304 12.1048 2.8598 11.9834 2.64359 11.7672C2.42738 11.5509 2.30591 11.2577 2.30591 10.9519V9.51082C2.30591 8.64615 1.36918 7.93942 1.01121 7.49325ZM5.18815 4.61331H6.62927L4.03526 8.072V5.76621H2.59413L5.18815 2.30521V4.61389V4.61331Z" fill="var(--fill-0, #5C5C5C)"/>
</svg>
