<svg preserveAspectRatio="none" width="100%" height="100%" overflow="visible" style="display: block;" viewBox="0 0 14.1783 5.59029" fill="none" xmlns="http://www.w3.org/2000/svg">
<g id="PDF">
<path d="M0 5.59029V0H2.20554C2.62955 0 2.99077 0.0809792 3.28921 0.242938C3.58765 0.403076 3.81512 0.625996 3.97162 0.911698C4.12994 1.19558 4.2091 1.52314 4.2091 1.89437C4.2091 2.2656 4.12903 2.59315 3.96889 2.87703C3.80875 3.16092 3.57673 3.38202 3.27283 3.54034C2.97075 3.69865 2.60498 3.77781 2.17552 3.77781H0.769757V2.83063H1.98444C2.21191 2.83063 2.39935 2.79151 2.54675 2.71326C2.69597 2.63319 2.80697 2.52309 2.87976 2.38297C2.95437 2.24103 2.99168 2.07816 2.99168 1.89437C2.99168 1.70875 2.95437 1.54679 2.87976 1.40849C2.80697 1.26837 2.69597 1.16009 2.54675 1.08366C2.39753 1.00542 2.20827 0.966291 1.97898 0.966291H1.18193V5.59029H0Z" fill="var(--fill-0, white)"/>
<path d="M6.9124 5.59029H4.93069V0H6.92878C7.49108 0 7.97514 0.111915 8.38094 0.335745C8.78675 0.557755 9.09884 0.877122 9.31721 1.29385C9.5374 1.71057 9.64749 2.20918 9.64749 2.78969C9.64749 3.37201 9.5374 3.87244 9.31721 4.29099C9.09884 4.70953 8.78493 5.03072 8.37548 5.25455C7.96786 5.47838 7.48016 5.59029 6.9124 5.59029ZM6.11262 4.5776H6.86327C7.21266 4.5776 7.50655 4.51573 7.74494 4.39198C7.98515 4.26642 8.1653 4.07261 8.28541 3.81057C8.40733 3.54671 8.46829 3.20641 8.46829 2.78969C8.46829 2.3766 8.40733 2.03904 8.28541 1.77699C8.1653 1.51495 7.98606 1.32205 7.74767 1.19831C7.50928 1.07457 7.21539 1.01269 6.866 1.01269H6.11262V4.5776Z" fill="var(--fill-0, white)"/>
<path d="M10.4769 5.59029V0H14.1783V0.974479H11.6588V2.30654H13.9326V3.28102H11.6588V5.59029H10.4769Z" fill="var(--fill-0, white)"/>
</g>
</svg>
