<svg preserveAspectRatio="none" width="100%" height="100%" overflow="visible" style="display: block;" viewBox="0 0 13.8348 9.22317" fill="none" xmlns="http://www.w3.org/2000/svg">
<g id="Icon / Mobile Signal">
<path d="M7.68598 2.30579C7.68598 1.88131 8.03009 1.5372 8.45457 1.5372H9.22317C9.64766 1.5372 9.99177 1.88131 9.99177 2.30579V8.45457C9.99177 8.87906 9.64766 9.22317 9.22317 9.22317H8.45457C8.03009 9.22317 7.68598 8.87906 7.68598 8.45457V2.30579Z" fill="var(--fill-0, #171717)"/>
<path d="M11.529 0.768597C11.529 0.344113 11.8731 0 12.2976 0H13.0662C13.4906 0 13.8348 0.344113 13.8348 0.768598V8.45457C13.8348 8.87906 13.4906 9.22317 13.0662 9.22317H12.2976C11.8731 9.22317 11.529 8.87906 11.529 8.45457V0.768597Z" fill="var(--fill-0, #171717)"/>
<path d="M3.84299 4.99588C3.84299 4.5714 4.1871 4.22729 4.61159 4.22729H5.38018C5.80467 4.22729 6.14878 4.5714 6.14878 4.99588V8.45457C6.14878 8.87906 5.80467 9.22317 5.38018 9.22317H4.61159C4.1871 9.22317 3.84299 8.87906 3.84299 8.45457V4.99588Z" fill="var(--fill-0, #171717)"/>
<path d="M0 6.91738C0 6.49289 0.344113 6.14878 0.768598 6.14878H1.5372C1.96168 6.14878 2.30579 6.49289 2.30579 6.91738V8.45457C2.30579 8.87906 1.96168 9.22317 1.5372 9.22317H0.768598C0.344113 9.22317 0 8.87906 0 8.45457V6.91738Z" fill="var(--fill-0, #171717)"/>
</g>
</svg>
