<svg preserveAspectRatio="xMidYMid meet" width="100%" height="100%" overflow="visible" style="display: block;" viewBox="0 0 13.182 14.5387" fill="none" xmlns="http://www.w3.org/2000/svg">
<path id="Vector" d="M12.1823 9.70772L13.0138 10.2065C13.0651 10.2372 13.1075 10.2806 13.137 10.3327C13.1665 10.3847 13.182 10.4434 13.182 10.5032C13.182 10.563 13.1665 10.6218 13.137 10.6738C13.1075 10.7258 13.0651 10.7693 13.0138 10.8L6.94724 14.4399C6.83966 14.5045 6.71651 14.5387 6.591 14.5387C6.46549 14.5387 6.34234 14.5045 6.23475 14.4399L0.168213 10.8C0.116918 10.7693 0.0744592 10.7258 0.0449778 10.6738C0.0154965 10.6218 0 10.563 0 10.5032C0 10.4434 0.0154965 10.3847 0.0449778 10.3327C0.0744592 10.2806 0.116918 10.2372 0.168213 10.2065L0.999682 9.70772L6.591 13.0626L12.1823 9.70772V9.70772ZM12.1823 6.45655L13.0138 6.95529C13.0651 6.986 13.1075 7.02948 13.137 7.08149C13.1665 7.1335 13.182 7.19226 13.182 7.25205C13.182 7.31183 13.1665 7.3706 13.137 7.42261C13.1075 7.47461 13.0651 7.5181 13.0138 7.5488L6.591 11.4025L0.168213 7.5488C0.116918 7.5181 0.0744592 7.47461 0.0449778 7.42261C0.0154965 7.3706 0 7.31183 0 7.25205C0 7.19226 0.0154965 7.1335 0.0449778 7.08149C0.0744592 7.02948 0.116918 6.986 0.168213 6.95529L0.999682 6.45655L6.591 9.81148L12.1823 6.45655ZM6.94655 0.098787L13.0138 3.73871C13.0651 3.76942 13.1075 3.8129 13.137 3.86491C13.1665 3.91692 13.182 3.97568 13.182 4.03547C13.182 4.09525 13.1665 4.15401 13.137 4.20602C13.1075 4.25803 13.0651 4.30151 13.0138 4.33222L6.591 8.18589L0.168213 4.33222C0.116918 4.30151 0.0744592 4.25803 0.0449778 4.20602C0.0154965 4.15401 0 4.09525 0 4.03547C0 3.97568 0.0154965 3.91692 0.0449778 3.86491C0.0744592 3.8129 0.116918 3.76942 0.168213 3.73871L6.23475 0.098787C6.34234 0.0341486 6.46549 0 6.591 0C6.71651 0 6.83966 0.0341486 6.94724 0.098787H6.94655ZM6.591 1.49817L2.36241 4.03547L6.591 6.57276L10.8196 4.03547L6.591 1.49817Z" fill="var(--fill-0, #5C5C5C)"/>
</svg>
