<svg preserveAspectRatio="none" width="100%" height="100%" overflow="visible" style="display: block;" viewBox="0 0 13.0664 9.09499" fill="none" xmlns="http://www.w3.org/2000/svg">
<path id="Wifi" d="M4.7002 6.85476C5.7915 5.91267 7.39018 5.91261 8.48145 6.85476C8.53631 6.90543 8.56783 6.97749 8.56934 7.053C8.57079 7.12845 8.54203 7.2013 8.48926 7.25417L6.78028 9.01394C6.73022 9.06563 6.66203 9.09495 6.59083 9.09499C6.51957 9.09499 6.45146 9.06567 6.40137 9.01394L4.69239 7.25417C4.63966 7.20128 4.60985 7.12843 4.61133 7.053C4.6129 6.97745 4.64526 6.9054 4.7002 6.85476ZM2.38965 4.74831C4.74085 2.51585 8.3822 2.51586 10.7334 4.74831C10.7864 4.80059 10.8166 4.87232 10.8174 4.94753C10.8181 5.02279 10.7892 5.09528 10.7373 5.1487L9.75001 6.16823C9.64825 6.27223 9.48335 6.27427 9.37891 6.17312C8.60681 5.45946 7.60217 5.06368 6.56055 5.06374C5.51968 5.06422 4.5157 5.45996 3.74415 6.17312C3.63979 6.27403 3.47575 6.27192 3.37403 6.16823L2.38575 5.1487C2.33389 5.09538 2.30497 5.02268 2.30567 4.94753C2.30647 4.87238 2.33673 4.80056 2.38965 4.74831ZM0.0820364 2.64577C3.68823 -0.881924 9.37819 -0.881924 12.9844 2.64577C13.0363 2.69814 13.066 2.76949 13.0664 2.84401C13.0668 2.91863 13.0378 2.99024 12.9863 3.04323L11.9971 4.06276C11.8953 4.1669 11.7304 4.16811 11.627 4.06569C10.253 2.73236 8.429 1.98863 6.53321 1.98855C4.63732 1.9886 2.81353 2.73232 1.43946 4.06569C1.33614 4.1683 1.17107 4.16703 1.06934 4.06276L0.0800833 3.04323C0.0285669 2.9902 -0.000443911 2.9187 5.1366e-06 2.84401C0.000485626 2.76947 0.0300418 2.69811 0.0820364 2.64577Z" fill="var(--fill-0, #171717)"/>
</svg>
