<svg preserveAspectRatio="none" width="100%" height="100%" overflow="visible" style="display: block;" viewBox="0 0 12.8275 8.97923" fill="none" xmlns="http://www.w3.org/2000/svg">
<path id="Vector" d="M5.13099 6.41374L8.45972 4.48962L5.13099 2.56549V6.41374ZM12.5453 1.39178C12.6286 1.69323 12.6864 2.09729 12.7249 2.61039C12.7698 3.12349 12.789 3.56604 12.789 3.95086L12.8275 4.48962C12.8275 5.89422 12.7249 6.92684 12.5453 7.58745C12.3849 8.16469 12.0129 8.53668 11.4357 8.69703C11.1342 8.78041 10.5827 8.83813 9.73605 8.87661C8.90227 8.92151 8.13903 8.94075 7.43352 8.94075L6.41374 8.97923C3.72638 8.97923 2.0524 8.87661 1.39178 8.69703C0.814545 8.53668 0.442548 8.16469 0.282204 7.58745C0.198826 7.286 0.141102 6.88194 0.10262 6.36884C0.0577237 5.85574 0.0384824 5.41319 0.0384824 5.02837L0 4.48962C0 3.08501 0.10262 2.0524 0.282204 1.39178C0.442548 0.814545 0.814545 0.442548 1.39178 0.282204C1.69323 0.198826 2.24481 0.141102 3.09142 0.10262C3.92521 0.0577235 4.68844 0.0384824 5.39395 0.0384824L6.41374 0C9.10109 0 10.7751 0.10262 11.4357 0.282204C12.0129 0.442548 12.3849 0.814545 12.5453 1.39178Z" fill="var(--fill-0, white)"/>
</svg>
