<svg preserveAspectRatio="none" width="100%" height="100%" overflow="visible" style="display: block;" viewBox="0 0 24.4444 23.3333" fill="none" xmlns="http://www.w3.org/2000/svg">
<path id="Vector" d="M20.7927 7.92012L20.5187 8.54866C20.3182 9.0088 19.6818 9.0088 19.4812 8.54866L19.2073 7.92012C18.719 6.79941 17.8394 5.90712 16.7419 5.41898L15.8978 5.04358C15.4414 4.84059 15.4414 4.17646 15.8978 3.97347L16.6947 3.61905C17.8204 3.11835 18.7158 2.19303 19.1957 1.03426L19.477 0.355034C19.6731 -0.118345 20.3269 -0.118345 20.5229 0.355034L20.8042 1.03426C21.2842 2.19303 22.1796 3.11835 23.3053 3.61905L24.1021 3.97347C24.5586 4.17646 24.5586 4.84059 24.1021 5.04358L23.2581 5.41898C22.1606 5.90712 21.281 6.79941 20.7927 7.92012ZM20 11.1111C20.7439 11.1111 21.4593 10.9892 22.1274 10.7644C22.19 11.2416 22.2222 11.7281 22.2222 12.2222C22.2222 18.3587 17.2476 23.3333 11.1111 23.3333C9.21944 23.3333 7.43822 22.8607 5.87908 22.0269L0 23.3333L1.30646 17.4542C0.472711 15.8951 0 14.1139 0 12.2222C0 6.08572 4.97461 1.11111 11.1111 1.11111C12.1173 1.11111 13.0923 1.24488 14.0193 1.49559C13.5801 2.38463 13.3333 3.38572 13.3333 4.44445C13.3333 8.12635 16.3181 11.1111 20 11.1111ZM5.55556 12.2222C5.55556 15.2904 8.04287 17.7778 11.1111 17.7778C14.1793 17.7778 16.6667 15.2904 16.6667 12.2222H14.4444C14.4444 14.0632 12.9521 15.5556 11.1111 15.5556C9.27011 15.5556 7.77778 14.0632 7.77778 12.2222H5.55556Z" fill="var(--fill-0, #E16614)"/>
</svg>
