<svg preserveAspectRatio="none" width="100%" height="100%" overflow="visible" style="display: block;" viewBox="0 0 15 15" fill="none" xmlns="http://www.w3.org/2000/svg">
<path id="Vector" d="M7.5 1.5C9.44288 1.5 11.1704 2.4229 12.268 3.85705L10.5 5.625H15V1.125L13.3361 2.78897C11.9621 1.089 9.8583 0 7.5 0C3.35786 0 0 3.35786 0 7.5H1.5C1.5 4.18629 4.18629 1.5 7.5 1.5ZM13.5 7.5C13.5 10.8137 10.8137 13.5 7.5 13.5C5.55713 13.5 3.82954 12.5771 2.73205 11.143L4.5 9.375H0V13.875L1.66397 12.2111C3.03796 13.911 5.14168 15 7.5 15C11.6421 15 15 11.6421 15 7.5H13.5Z" fill="var(--fill-0, #171717)"/>
</svg>
