<svg width="100%" height="100%" viewBox="0 0 24 24" fill="none" xmlns="http://www.w3.org/2000/svg">
<path d="M12 1.5c.5 4.6 1.4 6.1 4.6 7.2C18 9.2 19 9.6 20.5 10c-1.5.4-2.5.8-3.9 1.3-3.2 1.1-4.1 2.6-4.6 7.2-.5-4.6-1.4-6.1-4.6-7.2C6 10.8 5 10.4 3.5 10c1.5-.4 2.5-.8 3.9-1.3C10.6 7.6 11.5 6.1 12 1.5Z" fill="#7C3AED"/>
<path d="M18.5 14.5c.2 1.7.5 2.2 1.7 2.6.5.2.9.3 1.3.4-.4.1-.8.3-1.3.4-1.2.4-1.5.9-1.7 2.6-.2-1.7-.5-2.2-1.7-2.6-.5-.2-.9-.3-1.3-.4.4-.1.8-.3 1.3-.4 1.2-.4 1.5-.9 1.7-2.6Z" fill="#7C3AED"/>
</svg>
