<svg preserveAspectRatio="none" width="100%" height="100%" overflow="visible" style="display: block;" viewBox="0 0 21.6 21.6" fill="none" xmlns="http://www.w3.org/2000/svg">
<path id="Vector" d="M1.2 0H20.4C20.7183 0 21.0235 0.126428 21.2485 0.351472C21.4736 0.576515 21.6 0.88174 21.6 1.2V20.4C21.6 20.7183 21.4736 21.0235 21.2485 21.2485C21.0235 21.4736 20.7183 21.6 20.4 21.6H1.2C0.88174 21.6 0.576515 21.4736 0.351472 21.2485C0.126428 21.0235 0 20.7183 0 20.4V1.2C0 0.88174 0.126428 0.576515 0.351472 0.351472C0.576515 0.126428 0.88174 0 1.2 0V0ZM8.2428 14.4H13.3572L14.3412 16.8H17.0004L12 4.8H9.6L4.5996 16.8H7.26L8.244 14.4H8.2428ZM9.2268 12L10.8 8.16L12.3732 12H9.228H9.2268Z" fill="var(--fill-0, #E93544)"/>
</svg>
