<svg preserveAspectRatio="none" width="100%" height="100%" overflow="visible" style="display: block;" viewBox="0 0 22.2222 22.2222" fill="none" xmlns="http://www.w3.org/2000/svg">
<path id="Vector" d="M7.22222 0C5.07444 0 3.33333 1.74111 3.33333 3.88889C3.33333 4.08907 3.34849 4.28571 3.3777 4.47774C1.47151 4.72803 0 6.35883 0 8.33333C0 9.42144 0.446922 10.4052 1.16723 11.1111C0.446922 11.817 0 12.8008 0 13.8889C0 15.4464 0.9151 16.7893 2.23726 17.4103C2.2273 17.5317 2.22222 17.6542 2.22222 17.7778C2.22222 20.2323 4.21207 22.2222 6.66667 22.2222C7.9941 22.2222 9.18567 21.6402 10 20.7176V1.16723C9.29411 0.446922 8.31038 0 7.22222 0ZM12.2222 1.16723V20.7176C13.0366 21.6402 14.2281 22.2222 15.5556 22.2222C18.0101 22.2222 20 20.2323 20 17.7778C20 17.6542 19.9949 17.5317 19.985 17.4103C21.3071 16.7893 22.2222 15.4464 22.2222 13.8889C22.2222 12.8008 21.7753 11.817 21.055 11.1111C21.7753 10.4052 22.2222 9.42144 22.2222 8.33333C22.2222 6.35883 20.7507 4.72803 18.8446 4.47774C18.8738 4.28571 18.8889 4.08907 18.8889 3.88889C18.8889 1.74111 17.1478 0 15 0C13.9119 0 12.9281 0.446922 12.2222 1.16723Z" fill="var(--fill-0, #1DAF61)"/>
</svg>
