<svg preserveAspectRatio="none" width="100%" height="100%" overflow="visible" style="display: block;" viewBox="0 0 34.8333 43.1667" fill="none" xmlns="http://www.w3.org/2000/svg">
<g id="Group">
<path id="Vector" d="M0.75 13.25C0.75 7.35833 0.750001 4.41042 2.58125 2.58125C4.41042 0.75 7.35833 0.75 13.25 0.75H21.5833C27.475 0.75 30.4229 0.75 32.2521 2.58125C34.0833 4.41042 34.0833 7.35833 34.0833 13.25V29.9167C34.0833 35.8083 34.0833 38.7563 32.2521 40.5854C30.4229 42.4167 27.475 42.4167 21.5833 42.4167H13.25C7.35833 42.4167 4.41042 42.4167 2.58125 40.5854C0.750001 38.7563 0.75 35.8083 0.75 29.9167V13.25Z" stroke="var(--stroke-0, black)" stroke-width="1.5"/>
<path id="Vector_2" opacity="0.5" d="M33.8708 29.9167H8.87083C6.93333 29.9167 5.96458 29.9167 5.16875 30.1292C4.10898 30.4133 3.1427 30.9715 2.36704 31.7475C1.59138 32.5236 1.03368 33.4901 0.750001 34.55" stroke="var(--stroke-0, black)" stroke-width="1.5"/>
<path id="Vector_3" opacity="0.5" d="M9.08333 11.1667H25.75M9.08333 18.4583H19.5" stroke="var(--stroke-0, black)" stroke-width="1.5" stroke-linecap="round"/>
</g>
</svg>
