<svg preserveAspectRatio="none" width="100%" height="100%" overflow="visible" style="display: block;" viewBox="0 0 50 50" fill="none" xmlns="http://www.w3.org/2000/svg">
<g id="si:book-line" opacity="0.1">
<path id="Vector" d="M25 15.2771C25 11.4583 21.875 8.33333 18.0563 8.33333H4.16667V33.3333H18.1417C25 33.3333 25 40.2792 25 40.2792M25 40.2792V15.2771C25 11.4562 28.125 8.33333 31.9438 8.33333H45.8333V33.3333H31.9438C25 33.3333 25 40.2792 25 40.2792ZM28.9063 42.6208C29.3409 41.7206 30.0181 40.9593 30.8616 40.4228C31.7051 39.8862 32.6816 39.5955 33.6813 39.5833H43.75M21.0938 42.6208C20.667 41.7145 19.9917 40.9478 19.1464 40.4101C18.3011 39.8724 17.3206 39.5857 16.3188 39.5833H6.25" stroke="var(--stroke-0, black)" stroke-width="1.5" stroke-miterlimit="10" stroke-linecap="round" stroke-linejoin="round"/>
</g>
</svg>
