<svg preserveAspectRatio="none" width="100%" height="100%" overflow="visible" style="display: block;" viewBox="0 0 50 50" fill="none" xmlns="http://www.w3.org/2000/svg">
<g id="ph:brain-light" opacity="0.1">
<path id="Vector" d="M48.0469 24.2187C48.0443 22.1813 47.453 20.188 46.3442 18.4787C45.2354 16.7694 43.6563 15.4169 41.7969 14.584V14.0625C41.7949 12.08 41.1373 10.1538 39.9265 8.58409C38.7156 7.01433 37.0196 5.88913 35.1026 5.3838C33.1856 4.87847 31.1553 5.02138 29.328 5.79028C27.5007 6.55917 25.979 7.91086 25 9.63477C24.021 7.91086 22.4993 6.55917 20.672 5.79028C18.8447 5.02138 16.8144 4.87847 14.8974 5.3838C12.9804 5.88913 11.2844 7.01433 10.0735 8.58409C8.86272 10.1538 8.20509 12.08 8.20313 14.0625V14.584C6.34229 15.4142 4.76176 16.7656 3.65263 18.4749C2.54351 20.1842 1.95326 22.1782 1.95326 24.2158C1.95326 26.2534 2.54351 28.2474 3.65263 29.9567C4.76176 31.6661 6.34229 33.0175 8.20313 33.8477V34.375C8.20509 36.3575 8.86272 38.2837 10.0735 39.8534C11.2844 41.4232 12.9804 42.5484 14.8974 43.0537C16.8144 43.559 18.8447 43.4161 20.672 42.6472C22.4993 41.8783 24.021 40.5266 25 38.8027C25.979 40.5266 27.5007 41.8783 29.328 42.6472C31.1553 43.4161 33.1856 43.559 35.1026 43.0537C37.0196 42.5484 38.7156 41.4232 39.9265 39.8534C41.1373 38.2837 41.7949 36.3575 41.7969 34.375V33.8477C43.6562 33.0163 45.2355 31.665 46.3445 29.9566C47.4534 28.2482 48.0446 26.2555 48.0469 24.2187ZM17.1875 41.0156C15.4616 41.0165 13.8032 40.3453 12.5636 39.1444C11.324 37.9435 10.6007 36.3071 10.5469 34.582C11.1908 34.7041 11.8447 34.7656 12.5 34.7656H14.0625C14.3733 34.7656 14.6714 34.6422 14.8911 34.4224C15.1109 34.2026 15.2344 33.9045 15.2344 33.5937C15.2344 33.2829 15.1109 32.9849 14.8911 32.7651C14.6714 32.5453 14.3733 32.4219 14.0625 32.4219H12.5C10.5637 32.4234 8.68934 31.74 7.20846 30.4926C5.72758 29.2452 4.7357 27.5141 4.40832 25.6057C4.08094 23.6973 4.43917 21.7347 5.41963 20.065C6.40008 18.3953 7.93955 17.1263 9.76563 16.4824C9.9942 16.4016 10.1921 16.2519 10.332 16.0539C10.4719 15.8559 10.547 15.6194 10.5469 15.377V14.0625C10.5469 12.3013 11.2465 10.6122 12.4919 9.36687C13.7372 8.12151 15.4263 7.42187 17.1875 7.42187C18.9487 7.42187 20.6378 8.12151 21.8831 9.36687C23.1285 10.6122 23.8281 12.3013 23.8281 14.0625V28.3301C22.9875 27.404 21.9624 26.6641 20.8188 26.1578C19.6751 25.6516 18.4382 25.3903 17.1875 25.3906C16.8767 25.3906 16.5786 25.5141 16.3589 25.7339C16.1391 25.9536 16.0156 26.2517 16.0156 26.5625C16.0156 26.8733 16.1391 27.1714 16.3589 27.3911C16.5786 27.6109 16.8767 27.7344 17.1875 27.7344C18.9487 27.7344 20.6378 28.434 21.8831 29.6794C23.1285 30.9247 23.8281 32.6138 23.8281 34.375C23.8281 36.1362 23.1285 37.8253 21.8831 39.0706C20.6378 40.316 18.9487 41.0156 17.1875 41.0156ZM37.5 32.4219H35.9375C35.6267 32.4219 35.3286 32.5453 35.1089 32.7651C34.8891 32.9849 34.7656 33.2829 34.7656 33.5937C34.7656 33.9045 34.8891 34.2026 35.1089 34.4224C35.3286 34.6422 35.6267 34.7656 35.9375 34.7656H37.5C38.1554 34.7656 38.8093 34.7041 39.4531 34.582C39.4125 35.8858 38.9887 37.1488 38.2347 38.2133C37.4808 39.2777 36.43 40.0966 35.2136 40.5676C33.9972 41.0386 32.6689 41.1409 31.3947 40.8618C30.1205 40.5827 28.9567 39.9344 28.0486 38.998C27.1405 38.0616 26.5283 36.8784 26.2884 35.5963C26.0485 34.3141 26.1915 32.9896 26.6996 31.7882C27.2078 30.5868 28.0585 29.5617 29.1456 28.8407C30.2327 28.1198 31.5081 27.735 32.8125 27.7344C33.1233 27.7344 33.4214 27.6109 33.6411 27.3911C33.8609 27.1714 33.9844 26.8733 33.9844 26.5625C33.9844 26.2517 33.8609 25.9536 33.6411 25.7339C33.4214 25.5141 33.1233 25.3906 32.8125 25.3906C31.5618 25.3903 30.3249 25.6516 29.1812 26.1578C28.0376 26.6641 27.0125 27.404 26.1719 28.3301V14.0625C26.1719 12.3013 26.8715 10.6122 28.1169 9.36687C29.3622 8.12151 31.0513 7.42187 32.8125 7.42187C34.5737 7.42187 36.2628 8.12151 37.5081 9.36687C38.7535 10.6122 39.4531 12.3013 39.4531 14.0625V15.377C39.453 15.6194 39.5281 15.8559 39.668 16.0539C39.8079 16.2519 40.0058 16.4016 40.2344 16.4824C42.0605 17.1263 43.5999 18.3953 44.5804 20.065C45.5608 21.7347 45.9191 23.6973 45.5917 25.6057C45.2643 27.5141 44.2724 29.2452 42.7915 30.4926C41.3107 31.74 39.4363 32.4234 37.5 32.4219ZM40.2344 21.875C40.2344 22.1858 40.1109 22.4839 39.8911 22.7036C39.6714 22.9234 39.3733 23.0469 39.0625 23.0469H38.2813C36.52 23.0469 34.831 22.3472 33.5856 21.1019C32.3403 19.8565 31.6406 18.1675 31.6406 16.4062V15.625C31.6406 15.3142 31.7641 15.0161 31.9839 14.7964C32.2036 14.5766 32.5017 14.4531 32.8125 14.4531C33.1233 14.4531 33.4214 14.5766 33.6411 14.7964C33.8609 15.0161 33.9844 15.3142 33.9844 15.625V16.4062C33.9844 17.5459 34.4371 18.6388 35.2429 19.4446C36.0487 20.2504 37.1417 20.7031 38.2813 20.7031H39.0625C39.3733 20.7031 39.6714 20.8266 39.8911 21.0464C40.1109 21.2661 40.2344 21.5642 40.2344 21.875ZM11.7188 23.0469H10.9375C10.6267 23.0469 10.3286 22.9234 10.1089 22.7036C9.88909 22.4839 9.76563 22.1858 9.76563 21.875C9.76563 21.5642 9.88909 21.2661 10.1089 21.0464C10.3286 20.8266 10.6267 20.7031 10.9375 20.7031H11.7188C12.8584 20.7031 13.9513 20.2504 14.7571 19.4446C15.5629 18.6388 16.0156 17.5459 16.0156 16.4062V15.625C16.0156 15.3142 16.1391 15.0161 16.3589 14.7964C16.5786 14.5766 16.8767 14.4531 17.1875 14.4531C17.4983 14.4531 17.7964 14.5766 18.0161 14.7964C18.2359 15.0161 18.3594 15.3142 18.3594 15.625V16.4062C18.3594 18.1675 17.6597 19.8565 16.4144 21.1019C15.169 22.3472 13.48 23.0469 11.7188 23.0469Z" fill="var(--fill-0, black)"/>
</g>
</svg>
