<svg preserveAspectRatio="none" width="100%" height="100%" overflow="visible" style="display: block;" viewBox="0 0 50 50" fill="none" xmlns="http://www.w3.org/2000/svg">
<g id="arcticons:chemistry" opacity="0.1">
<path id="Vector" d="M11.1083 34.9635L5.72917 31.1823V15.3354L19.3344 7.41354L32.9385 15.3354V22.1031M14.8396 23.7844V39.2146M25.2365 23.7844V39.2146M14.8396 31.4708H25.2354M27.5542 37.7292C27.5542 36.2448 28.8625 35.075 30.3594 35.3698C31.3406 35.5635 32.125 36.4365 32.2229 37.4583C32.2958 38.2188 32.0615 38.9688 31.55 39.4302C30.6021 40.2844 27.5542 42.5865 27.5542 42.5865H32.2354M39.0729 23.7844C41.9521 23.7844 44.2708 26.0646 44.2708 28.8958V34.1042C44.2708 36.9354 41.9521 39.2146 39.0729 39.2146C36.1927 39.2146 33.875 36.9354 33.875 34.1031V28.8948C33.875 26.0646 36.1927 23.7844 39.0729 23.7844Z" stroke="var(--stroke-0, black)" stroke-width="0.5" stroke-linecap="round" stroke-linejoin="round"/>
</g>
</svg>
