<svg preserveAspectRatio="none" width="100%" height="100%" overflow="visible" style="display: block;" viewBox="0 0 50 50" fill="none" xmlns="http://www.w3.org/2000/svg">
<g id="arcticons:flashcards" opacity="0.1">
<path id="Vector" d="M14.8365 7.87604H35.1635C35.5274 7.87508 35.8878 7.94605 36.2241 8.08486C36.5604 8.22368 36.8659 8.4276 37.1231 8.68491C37.3803 8.94221 37.5841 9.24783 37.7228 9.58418C37.8615 9.92053 37.9323 10.281 37.9313 10.6448V39.3563C37.9322 39.72 37.8613 40.0803 37.7225 40.4165C37.5838 40.7528 37.38 41.0583 37.1228 41.3155C36.8656 41.5727 36.5601 41.7765 36.2238 41.9152C35.8876 42.054 35.5273 42.1249 35.1635 42.124H14.8365C14.4727 42.1249 14.1124 42.054 13.7762 41.9152C13.4399 41.7765 13.1344 41.5727 12.8772 41.3155C12.6201 41.0583 12.4162 40.7528 12.2775 40.4165C12.1387 40.0803 12.0678 39.72 12.0688 39.3563V10.6448C12.0677 10.2811 12.1384 9.9207 12.2771 9.58442C12.4157 9.24814 12.6194 8.94257 12.8765 8.68528C13.1336 8.42798 13.439 8.22404 13.7752 8.08516C14.1114 7.94628 14.4717 7.87522 14.8354 7.87604M15.9896 17.5896H34.4302M15.9896 21.1583H34.4302M15.9896 24.7292H34.4302M15.9896 28.2979H34.4302M15.9896 14.0198H23.3823M15.9896 31.8677H23.3823M15.9896 35.4375H34.4302M12.0677 39.3083H37.9323M20.6865 39.3083V42.1229M29.3146 39.3083V42.1229M12.051 38.3729L5.825 15.1292C5.72978 14.7781 5.7049 14.4116 5.75178 14.0509C5.79867 13.6901 5.91639 13.3422 6.09818 13.0271C6.27998 12.712 6.52226 12.436 6.8111 12.2148C7.09994 11.9937 7.42964 11.8318 7.78125 11.7385L12.0521 10.5938M37.949 38.3729L44.175 15.1292C44.2702 14.7781 44.2951 14.4116 44.2482 14.0509C44.2013 13.6901 44.0836 13.3422 43.9018 13.0271C43.72 12.712 43.4777 12.436 43.1889 12.2148C42.9001 11.9937 42.5704 11.8318 42.2187 11.7385L37.9479 10.5938" stroke="var(--stroke-0, black)" stroke-width="0.5" stroke-linecap="round" stroke-linejoin="round"/>
</g>
</svg>
