<svg preserveAspectRatio="none" width="100%" height="100%" overflow="visible" style="display: block;" viewBox="0 0 41.0833 41.0833" fill="none" xmlns="http://www.w3.org/2000/svg">
<g id="Group">
<path id="Vector" d="M0.75 20.5417C0.75 11.2125 0.75 6.54583 3.64792 3.64792C6.54583 0.75 11.2104 0.75 20.5417 0.75C29.8708 0.75 34.5375 0.75 37.4354 3.64792C40.3333 6.54583 40.3333 11.2104 40.3333 20.5417C40.3333 29.8708 40.3333 34.5375 37.4354 37.4354C34.5375 40.3333 29.8729 40.3333 20.5417 40.3333C11.2125 40.3333 6.54583 40.3333 3.64792 37.4354C0.75 34.5375 0.75 29.8729 0.75 20.5417Z" stroke="var(--stroke-0, black)" stroke-width="1.5"/>
<path id="Vector_2" d="M7 21.5833L7.98958 20.925C8.975 20.2667 9.46875 19.9375 9.94375 20.0833C10.4167 20.2312 10.6375 20.7812 11.0792 21.8833L14.2917 29.9167L18.6417 16.8646C19.5583 14.1146 20.0167 12.7396 21.1083 11.9542C22.2 11.1687 23.65 11.1667 26.5479 11.1667H34.0833M30.9583 20.5417L27.8333 23.6667M27.8333 23.6667L24.7083 26.7917M27.8333 23.6667L30.9583 26.7917M27.8333 23.6667L24.7083 20.5417" stroke="var(--stroke-0, black)" stroke-width="1.5" stroke-linecap="round" stroke-linejoin="round"/>
</g>
</svg>
