<svg preserveAspectRatio="none" width="100%" height="100%" overflow="visible" style="display: block;" viewBox="0 0 38.9985 38.9993" fill="none" xmlns="http://www.w3.org/2000/svg">
<g id="Group">
<path id="Vector" d="M19.4993 6.5684C21.9731 8.37219 24.3012 10.3679 26.4618 12.5372C28.631 14.6978 30.6267 17.0258 32.4305 19.4997M32.4305 19.4997C37.8138 12.0622 39.8347 5.02673 36.9034 2.09548C33.9722 -0.835767 26.9368 1.18507 19.4993 6.5684C17.0254 8.37219 14.6974 10.3679 12.5368 12.5372C10.3675 14.6978 8.37179 17.0258 6.56801 19.4997M32.4305 19.4997C37.8138 26.9372 39.8347 33.9726 36.9034 36.9038C34.7305 39.0767 30.2993 38.5288 25.1243 35.9038M6.56801 19.4997C1.18467 26.9372 -0.836159 33.9726 2.09509 36.9038C5.02634 39.8351 12.0618 37.8142 19.4993 32.4309C21.9731 30.6271 24.3012 28.6314 26.4618 26.4622C28.631 24.3016 30.6267 21.9735 32.4305 19.4997M6.56801 19.4997C8.37179 21.9735 10.3675 24.3016 12.5368 26.4622C14.6974 28.6314 17.0254 30.6271 19.4993 32.4309M6.56801 19.4997C1.18676 12.0622 -0.834076 5.02673 2.09509 2.09548C4.26801 -0.0774339 8.69926 0.470483 13.8743 3.09548" stroke="var(--stroke-0, black)" stroke-width="1.5" stroke-linecap="round"/>
<path id="Vector_2" d="M19.4993 23.6663C21.8004 23.6663 23.6659 21.8008 23.6659 19.4996C23.6659 17.1985 21.8004 15.333 19.4993 15.333C17.1981 15.333 15.3326 17.1985 15.3326 19.4996C15.3326 21.8008 17.1981 23.6663 19.4993 23.6663Z" stroke="var(--stroke-0, black)" stroke-width="1.5"/>
</g>
</svg>
